<svg width="1200" height="630" viewBox="0 0 1200 630" fill="none" xmlns="http://www.w3.org/2000/svg">
<rect width="1200" height="630" fill="url(#paint0_linear_70_2)"/>
<g filter="url(#filter0_f_70_2)">
<path d="M400.5 315C400.5 248.687 454.187 195 520.5 195H679.5C745.813 195 800.5 248.687 800.5 315C800.5 381.313 745.813 435 679.5 435H520.5C454.187 435 400.5 381.313 400.5 315Z" fill="#14706F" fill-opacity="0.2"/>
</g>
<rect x="420" y="215" width="360" height="200" rx="20" fill="white" fill-opacity="0.1"/>
<g style="mix-blend-mode:overlay">
<rect x="420" y="215" width="360" height="200" rx="20" fill="url(#paint1_radial_70_2)" fill-opacity="0.5"/>
</g>
<g filter="url(#filter1_d_70_2)">
<rect x="420" y="215" width="360" height="200" rx="20" fill="white" fill-opacity="0.05"/>
<rect x="421" y="216" width="358" height="198" rx="19" stroke="url(#paint2_linear_70_2)" stroke-opacity="0.5" stroke-width="2"/>
</g>
<path d="M570 315L545 358.301L510.799 342.5L510.799 287.5L545 271.699L570 315Z" fill="#FACC15"/>
<path d="M630 315L605 271.699L570.799 287.5V342.5L605 358.301L630 315Z" fill="#14706F"/>
<path d="M570 315L545 358.301L510.799 342.5M570 315L605 358.301L630 315M570 315L605 271.699L630 315M570 315L545 271.699L510.799 287.5" stroke="white" stroke-width="2"/>
<path d="M600 315L570 342.5L540 315L570 287.5L600 315Z" fill="white" fill-opacity="0.8"/>
<path d="M570 287.5L540 315L570 342.5L600 315L570 287.5Z" stroke="#FACC15" stroke-width="2"/>
<path d="M630 315L605 358.301L570.799 342.5L570 315L570.799 287.5L605 271.699L630 315Z" fill="#10B981" fill-opacity="0.5"/>
<defs>
<filter id="filter0_f_70_2" x="300.5" y="95" width="600" height="440" filterUnits="userSpaceOnUse" color-interpolation-filters="sRGB">
<feFlood flood-opacity="0" result="BackgroundImageFix"/>
<feBlend mode="normal" in="SourceGraphic" in2="BackgroundImageFix" result="shape"/>
<feGaussianBlur stdDeviation="50" result="effect1_foregroundBlur_70_2"/>
</filter>
<filter id="filter1_d_70_2" x="416" y="211" width="368" height="208" filterUnits="userSpaceOnUse" color-interpolation-filters="sRGB">
<feFlood flood-opacity="0" result="BackgroundImageFix"/>
<feColorMatrix in="SourceAlpha" type="matrix" values="0 0 0 0 0 0 0 0 0 0 0 0 0 0 0 0 0 0 127 0" result="hardAlpha"/>
<feOffset/>
<feGaussianBlur stdDeviation="2"/>
<feComposite in2="hardAlpha" operator="out"/>
<feColorMatrix type="matrix" values="0 0 0 0 1 0 0 0 0 1 0 0 0 0 1 0 0 0 0.25 0"/>
<feBlend mode="normal" in2="BackgroundImageFix" result="effect1_dropShadow_70_2"/>
<feBlend mode="normal" in="SourceGraphic" in2="effect1_dropShadow_70_2" result="shape"/>
</filter>
<linearGradient id="paint0_linear_70_2" x1="600" y1="0" x2="600" y2="630" gradientUnits="userSpaceOnUse">
<stop stop-color="#F3F4F6"/>
<stop offset="1" stop-color="#E5E7EB"/>
</linearGradient>
<radialGradient id="paint1_radial_70_2" cx="0" cy="0" r="1" gradientUnits="userSpaceOnUse" gradientTransform="translate(600 315) rotate(90) scale(100 180)">
<stop stop-color="white"/>
<stop offset="1" stop-color="white" stop-opacity="0"/>
</radialGradient>
<linearGradient id="paint2_linear_70_2" x1="420" y1="215" x2="780" y2="415" gradientUnits="userSpaceOnUse">
<stop stop-color="white" stop-opacity="0.5"/>
<stop offset="1" stop-color="white" stop-opacity="0"/>
</linearGradient>
</defs>
</svg>
