<svg width="1200" height="630" viewBox="0 0 1200 630" fill="none" xmlns="http://www.w3.org/2000/svg">
<rect width="1200" height="630" fill="url(#paint0_linear_1_1)"/>
<g opacity="0.4" filter="url(#filter0_f_1_1)">
<path d="M563.593 115.244C610.925 106.138 642.149 61.6496 688.01 64.3339C733.871 67.0182 761.794 108.973 798.809 139.431C835.824 169.889 881.332 188.46 913.434 222.158C945.536 255.855 963.858 303.425 943.411 343.344C922.964 383.264 866.195 408.834 815.118 418.067C764.041 427.3 717.388 420.334 677.203 394.887C637.018 369.44 604.425 326.68 565.485 301.979C526.544 277.279 481.936 270.834 446.012 248.064C410.089 225.294 384.288 186.994 391.319 144.93C398.35 102.866 438.409 68.3188 480.892 59.8143C523.376 51.3098 563.593 115.244 563.593 115.244Z" fill="url(#paint1_radial_1_1)"/>
</g>
<g opacity="0.5" filter="url(#filter1_f_1_1)">
<path d="M309.839 527.766C275.632 546.561 249.248 584.975 212.923 586.417C176.598 587.859 157.062 553.882 130.435 528.599C103.808 503.316 70.8033 487.318 52.8215 454.953C34.8396 422.589 32.227 375.47 55.4384 340.575C78.6498 305.68 126.311 287.056 168.046 279.791C209.782 272.526 246.398 276.505 275.632 299.199C304.866 321.893 326.027 362.404 335.798 402.046C345.568 441.688 344.046 482.492 327.915 513.788C311.783 545.084 309.839 527.766 309.839 527.766Z" fill="url(#paint2_radial_1_1)"/>
</g>
<defs>
<filter id="filter0_f_1_1" x="290.07" y="-36.936" width="754.606" height="556.273" filterUnits="userSpaceOnUse" color-interpolation-filters="sRGB">
<feFlood flood-opacity="0" result="BackgroundImageFix"/>
<feBlend mode="normal" in="SourceGraphic" in2="BackgroundImageFix" result="shape"/>
<feGaussianBlur stdDeviation="50" result="effect1_foregroundBlur_1_1"/>
</filter>
<filter id="filter1_f_1_1" x="-48.1699" y="178.583" width="484.96" height="508.834" filterUnits="userSpaceOnUse" color-interpolation-filters="sRGB">
<feFlood flood-opacity="0" result="BackgroundImageFix"/>
<feBlend mode="normal" in="SourceGraphic" in2="BackgroundImageFix" result="shape"/>
<feGaussianBlur stdDeviation="50" result="effect1_foregroundBlur_1_1"/>
</filter>
<linearGradient id="paint0_linear_1_1" x1="600" y1="0" x2="600" y2="630" gradientUnits="userSpaceOnUse">
<stop stop-color="#29ABE2" stop-opacity="0.1"/>
<stop offset="1" stop-color="#FF9933" stop-opacity="0.2"/>
</linearGradient>
<radialGradient id="paint1_radial_1_1" cx="0" cy="0" r="1" gradientUnits="userSpaceOnUse" gradientTransform="translate(670.381 242.028) rotate(90) scale(183.13 293.733)">
<stop stop-color="#29ABE2"/>
<stop offset="1" stop-color="#29ABE2" stop-opacity="0"/>
</radialGradient>
<radialGradient id="paint2_radial_1_1" cx="0" cy="0" r="1" gradientUnits="userSpaceOnUse" gradientTransform="translate(193.303 433.013) rotate(90) scale(154.558 155.856)">
<stop stop-color="#FF9933"/>
<stop offset="1" stop-color="#FF9933" stop-opacity="0"/>
</radialGradient>
</defs>
</svg>