<svg width="1200" height="630" viewBox="0 0 1200 630" fill="none" xmlns="http://www.w3.org/2000/svg">
<rect width="1200" height="630" fill="url(#paint0_linear_70_8)"/>
<g opacity="0.5" filter="url(#filter0_f_70_8)">
<circle cx="600" cy="315" r="200" fill="url(#paint1_radial_70_8)"/>
</g>
<g filter="url(#filter1_d_70_8)">
<rect x="420" y="215" width="360" height="200" rx="20" fill="white" fill-opacity="0.05"/>
<rect x="421" y="216" width="358" height="198" rx="19" stroke="url(#paint2_linear_70_8)" stroke-opacity="0.5" stroke-width="2"/>
</g>
<path d="M577.5 358.5V271.5L541.5 292.5V337.5L577.5 358.5Z" fill="#FBBF24"/>
<path d="M577.5 271.5L613.5 292.5V337.5L577.5 358.5V271.5Z" fill="#FACC15"/>
<path d="M577.5 271.5L541.5 292.5M613.5 292.5L577.5 271.5" stroke="#A16207" stroke-width="2"/>
<path d="M541.5 337.5L577.5 358.5L613.5 337.5" stroke="#A16207" stroke-width="2"/>
<path d="M560.5 337L577.5 347.5L594.5 337" stroke="#A16207" stroke-width="2"/>
<path d="M577.5 271.5V358.5" stroke="#A16207" stroke-width="2"/>
<path d="M602 260L678 260" stroke="#14706F" stroke-width="4" stroke-linecap="round"/>
<path d="M602 272L660 272" stroke="#14706F" stroke-width="4" stroke-linecap="round"/>
<path d="M602 284L671 284" stroke="#14706F" stroke-width="4" stroke-linecap="round"/>
<g filter="url(#filter2_d_70_8)">
<path d="M635 345C635 342.239 637.239 340 640 340H690C692.761 340 695 342.239 695 345V365C695 367.761 692.761 370 690 370H640C637.239 370 635 367.761 635 365V345Z" fill="#10B981"/>
</g>
<g filter="url(#filter3_d_70_8)">
<path d="M635 310C635 307.239 637.239 305 640 305H710C712.761 305 715 307.239 715 310V330C715 332.761 712.761 335 710 335H640C637.239 335 635 332.761 635 330V310Z" fill="#14706F"/>
</g>
<path d="M685 355L700 370L725 345" stroke="white" stroke-width="4" stroke-linecap="round" stroke-linejoin="round"/>
<defs>
<filter id="filter0_f_70_8" x="300" y="15" width="600" height="600" filterUnits="userSpaceOnUse" color-interpolation-filters="sRGB">
<feFlood flood-opacity="0" result="BackgroundImageFix"/>
<feBlend mode="normal" in="SourceGraphic" in2="BackgroundImageFix" result="shape"/>
<feGaussianBlur stdDeviation="50" result="effect1_foregroundBlur_70_8"/>
</filter>
<filter id="filter1_d_70_8" x="416" y="211" width="368" height="208" filterUnits="userSpaceOnUse" color-interpolation-filters="sRGB">
<feFlood flood-opacity="0" result="BackgroundImageFix"/>
<feColorMatrix in="SourceAlpha" type="matrix" values="0 0 0 0 0 0 0 0 0 0 0 0 0 0 0 0 0 0 127 0" result="hardAlpha"/>
<feOffset/>
<feGaussianBlur stdDeviation="2"/>
<feComposite in2="hardAlpha" operator="out"/>
<feColorMatrix type="matrix" values="0 0 0 0 1 0 0 0 0 1 0 0 0 0 1 0 0 0 0.25 0"/>
<feBlend mode="normal" in2="BackgroundImageFix" result="effect1_dropShadow_70_8"/>
<feBlend mode="normal" in="SourceGraphic" in2="effect1_dropShadow_70_8" result="shape"/>
</filter>
<filter id="filter2_d_70_8" x="631" y="336" width="68" height="42" filterUnits="userSpaceOnUse" color-interpolation-filters="sRGB">
<feFlood flood-opacity="0" result="BackgroundImageFix"/>
<feColorMatrix in="SourceAlpha" type="matrix" values="0 0 0 0 0 0 0 0 0 0 0 0 0 0 0 0 0 0 127 0" result="hardAlpha"/>
<feOffset/>
<feGaussianBlur stdDeviation="2"/>
<feComposite in2="hardAlpha" operator="out"/>
<feColorMatrix type="matrix" values="0 0 0 0 0 0 0 0 0 0 0 0 0 0 0 0 0 0 0.1 0"/>
<feBlend mode="normal" in2="BackgroundImageFix" result="effect1_dropShadow_70_8"/>
<feBlend mode="normal" in="SourceGraphic" in2="effect1_dropShadow_70_8" result="shape"/>
</filter>
<filter id="filter3_d_70_8" x="631" y="301" width="88" height="42" filterUnits="userSpaceOnUse" color-interpolation-filters="sRGB">
<feFlood flood-opacity="0" result="BackgroundImageFix"/>
<feColorMatrix in="SourceAlpha" type="matrix" values="0 0 0 0 0 0 0 0 0 0 0 0 0 0 0 0 0 0 127 0" result="hardAlpha"/>
<feOffset/>
<feGaussianBlur stdDeviation="2"/>
<feComposite in2="hardAlpha" operator="out"/>
<feColorMatrix type="matrix" values="0 0 0 0 0 0 0 0 0 0 0 0 0 0 0 0 0 0 0.1 0"/>
<feBlend mode="normal" in2="BackgroundImageFix" result="effect1_dropShadow_70_8"/>
<feBlend mode="normal" in="SourceGraphic" in2="effect1_dropShadow_70_8" result="shape"/>
</filter>
<linearGradient id="paint0_linear_70_8" x1="600" y1="0" x2="600" y2="630" gradientUnits="userSpaceOnUse">
<stop stop-color="#FEFCE8"/>
<stop offset="1" stop-color="#FEF3C7"/>
</linearGradient>
<radialGradient id="paint1_radial_70_8" cx="0" cy="0" r="1" gradientUnits="userSpaceOnUse" gradientTransform="translate(600 315) rotate(90) scale(200)">
<stop stop-color="#14706F"/>
<stop offset="1" stop-color="#10B981" stop-opacity="0"/>
</radialGradient>
<linearGradient id="paint2_linear_70_8" x1="420" y1="215" x2="780" y2="415" gradientUnits="userSpaceOnUse">
<stop stop-color="white" stop-opacity="0.5"/>
<stop offset="1" stop-color="white" stop-opacity="0"/>
</linearGradient>
</defs>
</svg>
