<svg width="1200" height="630" viewBox="0 0 1200 630" fill="none" xmlns="http://www.w3.org/2000/svg">
<rect width="1200" height="630" fill="url(#paint0_linear_4_1)"/>
<g opacity="0.7">
<path d="M200 400C250 300 350 300 400 400C450 500 550 500 600 400C650 300 750 300 800 400C850 500 950 500 1000 400" stroke="url(#paint1_linear_4_1)" stroke-width="30" stroke-linecap="round"/>
<path d="M200 450C250 350 350 350 400 450C450 550 550 550 600 450C650 350 750 350 800 450C850 550 950 550 1000 450" stroke="url(#paint2_linear_4_1)" stroke-width="20" stroke-linecap="round" stroke-dasharray="1 25"/>
</g>
<g filter="url(#filter0_f_4_1)">
<path d="M600 100L650 200L600 300L550 200L600 100Z" fill="#29ABE2"/>
</g>
<g filter="url(#filter1_f_4_1)">
<path d="M400 200L450 300L400 400L350 300L400 200Z" fill="#FF9933"/>
</g>
<g filter="url(#filter2_f_4_1)">
<path d="M800 200L850 300L800 400L750 300L800 200Z" fill="#29ABE2"/>
</g>
<defs>
<filter id="filter0_f_4_1" x="350" y="-100" width="500" height="600" filterUnits="userSpaceOnUse" color-interpolation-filters="sRGB">
<feFlood flood-opacity="0" result="BackgroundImageFix"/>
<feBlend mode="normal" in="SourceGraphic" in2="BackgroundImageFix" result="shape"/>
<feGaussianBlur stdDeviation="100" result="effect1_foregroundBlur_4_1"/>
</filter>
<filter id="filter1_f_4_1" x="150" y="0" width="500" height="600" filterUnits="userSpaceOnUse" color-interpolation-filters="sRGB">
<feFlood flood-opacity="0" result="BackgroundImageFix"/>
<feBlend mode="normal" in="SourceGraphic" in2="BackgroundImageFix" result="shape"/>
<feGaussianBlur stdDeviation="100" result="effect1_foregroundBlur_4_1"/>
</filter>
<filter id="filter2_f_4_1" x="550" y="0" width="500" height="600" filterUnits="userSpaceOnUse" color-interpolation-filters="sRGB">
<feFlood flood-opacity="0" result="BackgroundImageFix"/>
<feBlend mode="normal" in="SourceGraphic" in2="BackgroundImageFix" result="shape"/>
<feGaussianBlur stdDeviation="100" result="effect1_foregroundBlur_4_1"/>
</filter>
<linearGradient id="paint0_linear_4_1" x1="600" y1="0" x2="600" y2="630" gradientUnits="userSpaceOnUse">
<stop stop-color="#24243e"/>
<stop offset="1" stop-color="#302b63"/>
</linearGradient>
<linearGradient id="paint1_linear_4_1" x1="200" y1="400" x2="1000" y2="400" gradientUnits="userSpaceOnUse">
<stop stop-color="#29ABE2"/>
<stop offset="1" stop-color="#FF9933"/>
</linearGradient>
<linearGradient id="paint2_linear_4_1" x1="200" y1="450" x2="1000" y2="450" gradientUnits="userSpaceOnUse">
<stop stop-color="#FFFFFF" stop-opacity="0.3"/>
<stop offset="1" stop-color="#FFFFFF" stop-opacity="0"/>
</linearGradient>
</defs>
</svg>